<svg xmlns="http://www.w3.org/2000/svg" viewBox="0 0 64 64" fill="none"><defs><linearGradient id="body" x1="0" y1="0" x2="1" y2="1"><stop stop-color="#14deb0"/><stop offset=".45" stop-color="#00dba9"/><stop offset="1" stop-color="#00cc9d"/></linearGradient><linearGradient id="shine" x1="0" y1="0" x2="1" y2="1"><stop stop-color="#ffffff"/><stop offset=".22" stop-color="#00dba9"/><stop offset="1" stop-color="#00dba9"/></linearGradient><linearGradient id="edge" x1="0" y1="0" x2="0" y2="1"><stop stop-color="#00dba9"/><stop offset="1" stop-color="#00cc9d"/></linearGradient></defs><g stroke="#eaffff" stroke-width=".65" stroke-linejoin="round" paint-order="stroke fill"><path d="M30 22C23 18 13 23 3 13C3 24 8 31 20 34L10 33Q15 40 27 37L23 53L32 58L41 53L37 37Q49 40 54 33L44 34C56 31 61 24 61 13C51 23 41 18 34 22L35 13L32 5L29 13Z" fill="url(#body)" /><path d="M31 21Q26 37 32 49Q38 37 33 21Z" fill="url(#shine)" /><path d="M8 23L24 28M13 30L24 32M56 23L40 28M51 30L40 32M27 51L30 43M37 51L34 43" fill="none" stroke="url(#edge)" stroke-width="1.5"/></g></svg>
