<svg xmlns="http://www.w3.org/2000/svg" viewBox="0 0 64 64" fill="none"><defs><linearGradient id="body" x1="0" y1="0" x2="1" y2="1"><stop stop-color="#14dc8c"/><stop offset=".45" stop-color="#00d982"/><stop offset="1" stop-color="#00ca79"/></linearGradient><linearGradient id="shine" x1="0" y1="0" x2="1" y2="1"><stop stop-color="#ffffff"/><stop offset=".22" stop-color="#00d982"/><stop offset="1" stop-color="#00d982"/></linearGradient><linearGradient id="edge" x1="0" y1="0" x2="0" y2="1"><stop stop-color="#00d982"/><stop offset="1" stop-color="#00ca79"/></linearGradient></defs><g stroke="#eaffff" stroke-width=".65" stroke-linejoin="round" paint-order="stroke fill"><path d="M22 48H42L47 59H17Z" fill="url(#body)" /><path d="M21 51H43L45 56H19Z" fill="url(#shine)" /><rect x="26" y="43" width="12" height="9" rx="2" fill="url(#body)"/><path d="M30 46L24 30L31 26L38 47Z" fill="url(#body)" /><g transform="rotate(-36 26 25)"><ellipse cx="26" cy="25" rx="12" ry="21" fill="url(#body)" /><ellipse cx="26" cy="25" rx="9" ry="19" fill="url(#shine)" /><path d="M18 10Q22 33 34 40" fill="none" stroke="white" stroke-opacity=".75" stroke-width="1.5"/><path d="M26 25L40 17" fill="none" stroke="url(#edge)" stroke-width="3.8" stroke-linecap="round" stroke-linejoin="round"/><ellipse cx="41" cy="16" rx="3" ry="3" fill="url(#body)" /></g><path d="M42 5Q57 7 59 23M43 13Q50 15 51 23" fill="none" stroke="url(#edge)" stroke-width="3.8" stroke-linecap="round" stroke-linejoin="round"/></g></svg>
