<svg xmlns="http://www.w3.org/2000/svg" viewBox="0 0 64 64" fill="none"><defs><linearGradient id="body" x1="0" y1="0" x2="1" y2="1"><stop stop-color="#a95bff"/><stop offset=".45" stop-color="#a24dff"/><stop offset="1" stop-color="#9748ed"/></linearGradient><linearGradient id="shine" x1="0" y1="0" x2="1" y2="1"><stop stop-color="#ffffff"/><stop offset=".22" stop-color="#a24dff"/><stop offset="1" stop-color="#a24dff"/></linearGradient><linearGradient id="edge" x1="0" y1="0" x2="0" y2="1"><stop stop-color="#a24dff"/><stop offset="1" stop-color="#9748ed"/></linearGradient></defs><g stroke="#eaffff" stroke-width=".65" stroke-linejoin="round" paint-order="stroke fill"><rect x="8" y="17" width="47" height="33" rx="6" fill="url(#body)"/><rect x="12" y="21" width="39" height="25" rx="3" fill="url(#shine)"/><path d="M3 22H9M55 22H61" fill="none" stroke="url(#edge)" stroke-width="3.8" stroke-linecap="round" stroke-linejoin="round"/><path d="M3 31H9M55 31H61" fill="none" stroke="url(#edge)" stroke-width="3.8" stroke-linecap="round" stroke-linejoin="round"/><path d="M3 40H9M55 40H61" fill="none" stroke="url(#edge)" stroke-width="3.8" stroke-linecap="round" stroke-linejoin="round"/><path d="M23 25H20V31L17 34L20 37V42H23M42 25H45V31L48 34L45 37V42H42" fill="none" stroke="white" stroke-width="2.5"/><path d="M30 27V32M35 27V32M30 37V41M35 37V41" fill="none" stroke="url(#edge)" stroke-width="3.8" stroke-linecap="round" stroke-linejoin="round"/><rect x="13" y="12" width="6" height="5" rx="1" fill="url(#body)"/><rect x="44" y="12" width="6" height="5" rx="1" fill="url(#body)"/></g></svg>
